<svg xmlns="http://www.w3.org/2000/svg" version="1.1" xmlns:xlink="http://www.w3.org/1999/xlink" xmlns:svgjs="http://svgjs.dev/svgjs" viewBox="0 0 1920 1080" class="overflow-hidden rounded-md drop-shadow-lg transition duration-300" style="overflow: hidden; height: 85vh;">
  <rect width="1920" height="1080" fill="#5f49cf"/>
  <g clip-path="url(&quot;#SvgjsClipPath4855&quot;)">
    <g transform="matrix(-2.112515728529184e-16,-1.15,1.15,-2.112515728529184e-16,303.19648742675804,1602.8259605407716)">
      <path d="M0,-1080C-7.674503512117148,-1012.0553125534767,-55.80805751730221,-807.3014027350031,-46.04702107270289,-672.3318753208605C-36.28598462810357,-537.3623479067179,60.53487197021333,-404.2209111647344,58.566218667595905,-270.18283551514423C56.59756536497848,-136.1447598655541,-53.493903444038175,-6.659381830790238,-57.85894088840746,131.89657857668033C-62.223978332776746,270.4525389841509,27.85460367340882,438.02915288729116,32.37599400138021,561.1529269296792C36.897384329351596,684.2767009720673,-13.41249469831385,730.7456266299195,-30.73059892057914,870.6392228310087C-48.04870314284443,1010.532819032098,-73.14984605528518,1252.8030980689546,-71.53263133221154,1400.5145041362148C-69.91541660913789,1548.225910203475,-32.949415804172496,1630.3267432572725,-21.02731058213724,1756.90765923457C-9.105205360101984,1883.4885752118676,-3.50455176368954,2092.817943205762,0,2160L 1920 2160 L 1920 -1080 Z" fill="url(&quot;#SvgjsLinearGradient4843&quot;)"/>
      <path d="M160,-1080C158.442890398774,-982.0312317053919,159.3180304797754,-711.384504758933,150.65734239264404,-492.18739023235145C141.9966543055127,-272.9902757057699,118.26419605384994,-1.1007976877716317,108.03587147721198,235.18268715948943C97.80754690057402,471.4661720067505,82.96712932751751,709.1811111259839,89.28739493281626,925.5135188512148C95.607660538115,1141.845926576446,134.17203093114045,1327.4293866527446,145.9574651090044,1533.1771335108754C157.74289928686835,1738.9248803690061,157.6595775181674,2055.5295222518125,160,2160L 1920 2160 L 1920 -1080 Z" fill="url(&quot;#SvgjsLinearGradient4844&quot;)"/>
      <path d="M320,-1080C309.78377415741363,-1006.6058859083524,259.7924347308486,-789.7191003912674,258.70264494448196,-639.6353154501148C257.61285515811534,-489.5515305089623,304.5922127040984,-344.66487674026064,313.46126128180026,-179.4972903530849C322.3303098595021,-14.329703965909147,313.09190310155276,203.33619854799525,311.9169364106929,351.37020287293973C310.7419697198331,499.4042071978842,306.80324321260457,555.0883168091565,306.41146113664115,708.7067355965819C306.01967906067773,862.3251543840073,305.4142457343823,1119.602469432289,309.56624395491235,1273.0807155974921C313.7182421754424,1426.5589617626954,329.5844911189736,1481.75633185405,331.3234504598215,1629.5762125878011C333.06240980066946,1777.3960933215524,321.8872417433036,2071.5960354313,320,2160L 1920 2160 L 1920 -1080 Z" fill="url(&quot;#SvgjsLinearGradient4845&quot;)"/>
      <path d="M480,-1080C485.096458715748,-1010.4886974209982,502.61352334949856,-813.5880913662547,510.5787522944878,-662.9321845259888C518.543981239477,-512.2762776857228,538.6630312896165,-343.09167936335973,527.7913736699353,-176.06455895840398C516.9197160502541,-9.037438553448254,451.14088473880764,187.56527212418953,445.3488065764008,339.2305379037456C439.556728413994,490.89580368330166,493.1699064539288,582.9233311916478,493.0389046954943,733.9270357189324C492.9079029370598,884.930740246217,440.0789511471169,1073.6049552566578,444.56279602579394,1245.2527650674535C449.04664090447096,1416.9005748782492,514.0357733051887,1611.3560220949485,519.9419739675565,1763.813894583706C525.8481746299242,1916.2717670724637,486.65699566125943,2093.968982430618,480,2160L 1920 2160 L 1920 -1080 Z" fill="url(&quot;#SvgjsLinearGradient4846&quot;)"/>
      <path d="M640,-1080C652.0428895729589,-980.1788929559782,711.7624093094707,-691.6907301356532,712.2573374377534,-481.0733577358691C712.7522655660362,-270.45598533608495,648.2446726917386,-50.57629406527437,642.9695687696964,183.70423439870473C637.6944648476541,417.98476286268385,672.2500543473388,710.9392216696614,680.6067139055,924.6098130480054C688.9633734636611,1138.2804044263494,699.8773117695796,1259.82941817677,693.1095261186629,1465.7277826687691C686.3417404677461,1671.6261471607681,648.8515876864438,2044.2879637781282,640,2160L 1920 2160 L 1920 -1080 Z" fill="url(&quot;#SvgjsLinearGradient4847&quot;)"/>
      <path d="M800,-1080C808.6774795156012,-950.9580489364789,856.5775513162778,-569.262015389467,852.0648770936076,-305.7482936188735C847.5522028709374,-42.23457184828004,779.6868644467792,219.32494619634764,772.9239546639786,501.0823306235609C766.1610448811781,782.8397150507742,806.974744174134,1108.3097347149996,811.4874183968042,1384.7960129444061C816.0000926194743,1661.2822911738126,801.9145697328007,2030.7993354907344,800,2160L 1920 2160 L 1920 -1080 Z" fill="url(&quot;#SvgjsLinearGradient4848&quot;)"/>
      <path d="M960,-1080C965.8587715148425,-992.1229645220355,989.3363142283124,-740.5382562859929,995.1526290890552,-552.7377871322133C1000.9689439497979,-364.9373179784336,1001.7841583158877,-131.63388209925913,994.8978891644562,46.80281492267795C988.0116200130246,225.23951194461503,957.0664612417743,351.872471229413,953.8350141804658,517.8823949994091C950.6035671191573,683.8923187694053,986.1360926360601,855.8627694251667,975.509206796605,1042.8623575426548C964.8823209571499,1229.8619456601427,892.6585669431696,1453.6903166281131,890.0736991437354,1639.8799237043374C887.4888313443013,1826.0695307805618,948.3456165239559,2073.3133206173898,960,2160L 1920 2160 L 1920 -1080 Z" fill="url(&quot;#SvgjsLinearGradient4849&quot;)"/>
      <path d="M1120,-1080C1120.3796520577628,-960.0492320634459,1112.1573547472221,-569.0213314078771,1122.2779123465766,-360.2953923806749C1132.398469945931,-151.56945335347268,1190.3959877748698,-33.212400557578945,1180.7233455961273,172.35563416321344C1171.0507034173847,377.9236688840058,1083.5397874117689,657.164047798573,1064.2420592741216,873.1128159440793C1044.9443311364744,1089.0615840895857,1055.6439866492633,1253.5670456935977,1064.936976770243,1468.048243036251C1074.2299668912228,1682.5294403789044,1110.8228294617072,2044.6747071727086,1120,2160L 1920 2160 L 1920 -1080 Z" fill="url(&quot;#SvgjsLinearGradient4850&quot;)"/>
      <path d="M1280,-1080C1281.0860626882804,-988.6545962780501,1298.4585064169107,-711.2567600030002,1286.5163761296822,-531.9275776683007C1274.5742458424536,-352.5983953336013,1217.388124841361,-178.95376510475376,1208.3472182766284,-4.024905991803038C1199.3063117118957,170.9039531211477,1218.2083119503409,336.9518315289156,1232.2709367412856,517.6455770094037C1246.3335615322303,698.3393224898919,1280.2347853921044,896.2152456409051,1292.722967022296,1080.1375668911257C1305.2111486524875,1264.0598881413464,1309.3205210261503,1441.202432325915,1307.2000265224344,1621.1795045107274C1305.0795320187185,1801.1565766955398,1284.533337753739,2070.1965840851212,1280,2160L 1920 2160 L 1920 -1080 Z" fill="url(&quot;#SvgjsLinearGradient4851&quot;)"/>
      <path d="M1440,-1080C1439.988965146639,-1015.3414554329399,1433.6197553814195,-852.830136132372,1439.9337908798336,-692.0487325976393C1446.2478263782477,-531.2673290629066,1470.547258290786,-286.0321616709755,1477.884212990485,-115.3115787916039C1485.2211676901838,55.409004087767684,1478.061096930801,196.35551032183741,1483.955519078028,332.2747646785903C1489.8499412252547,468.1940190353432,1521.5258442024872,541.2567742609667,1513.250745873846,700.2039473489135C1504.9756475452048,859.1511204368603,1434.434325674758,1121.119509778233,1434.304929106181,1285.957803206271C1434.1755325376039,1450.796096634309,1511.5251879800812,1543.56000845152,1512.4743664623843,1689.2337079171414C1513.4235449446874,1834.9074073827628,1452.0790610770641,2081.5389513195237,1440,2160L 1920 2160 L 1920 -1080 Z" fill="url(&quot;#SvgjsLinearGradient4852&quot;)"/>
      <path d="M1600,-1080C1603.2867911875371,-1002.1155212820996,1617.751842702401,-774.1496737031041,1619.7207471252232,-612.6931276925975C1621.6896515480453,-451.2365816820909,1613.5063811751656,-260.86473522118445,1611.813426536933,-111.26072393696047C1610.1204718987005,38.343287347263484,1615.756258151231,140.43815399215174,1609.5630192958274,284.9309400127462C1603.369780440424,429.42372603334064,1576.1857645542177,587.9491262937686,1574.6539934045124,755.6959921866062C1573.1222222548072,923.4428580794438,1604.0775937447922,1128.1616570249037,1600.3723923975951,1291.4121353697715C1596.667191050398,1454.6626137146393,1552.4848507209285,1590.4342181507745,1552.4227853213295,1735.1988622558126C1552.3607199217304,1879.9635063608507,1592.0704642202215,2089.199810375969,1600,2160L 1920 2160 L 1920 -1080 Z" fill="url(&quot;#SvgjsLinearGradient4853&quot;)"/>
      <path d="M1760,-1080C1760.2580417241343,-979.64538163683,1771.1912337785357,-682.5645499908472,1761.5482503448059,-477.8722898209804C1751.905266911076,-273.1800296511136,1691.3016374182662,-65.97028227161508,1702.1420993976212,148.15356101920116C1712.9825613769763,362.2774043100174,1819.2409802121836,582.9895516204882,1826.5910222209366,806.8707699239169C1833.9410642296896,1030.7519882273455,1757.3408551536281,1265.9193324937594,1746.2423514501388,1491.4408708397732C1735.1438477466495,1716.962409185787,1757.7070585750232,2048.5734784732954,1760,2160L 1920 2160 L 1920 -1080 Z" fill="url(&quot;#SvgjsLinearGradient4854&quot;)"/>
    </g>
  </g>
  <defs>

    <linearGradient x1="0.1" y1="0" x2="0" y2="1" id="SvgjsLinearGradient4845">
      <stop stop-color="#8473da" offset="0"/>
      <stop stop-color="#7373da" offset="0.16666666666666666"/>
    </linearGradient>
    <linearGradient x1="0.1" y1="0" x2="0" y2="1" id="SvgjsLinearGradient4846">
      <stop stop-color="#9788e0" offset="0"/>
      <stop stop-color="#8888e0" offset="0.25"/>
    </linearGradient>
    <linearGradient x1="0.1" y1="0" x2="0" y2="1" id="SvgjsLinearGradient4847">
      <stop stop-color="#a99de5" offset="0"/>
      <stop stop-color="#9d9de5" offset="0.3333333333333333"/>
    </linearGradient>
    <linearGradient x1="0.1" y1="0" x2="0" y2="1" id="SvgjsLinearGradient4848">
      <stop stop-color="#bcb3eb" offset="0"/>
      <stop stop-color="#b3b3eb" offset="0.4166666666666667"/>
    </linearGradient>
    <linearGradient x1="0.1" y1="0" x2="0" y2="1" id="SvgjsLinearGradient4849">
      <stop stop-color="#cec8f0" offset="0"/>
      <stop stop-color="#c8c9f0" offset="0.5"/>
    </linearGradient>
    <linearGradient x1="0.1" y1="0" x2="0" y2="1" id="SvgjsLinearGradient4850">
      <stop stop-color="#e1ddf6" offset="0"/>
      <stop stop-color="#ddddf6" offset="0.5833333333333334"/>
    </linearGradient>
    <linearGradient x1="0.1" y1="0" x2="0" y2="1" id="SvgjsLinearGradient4851">
      <stop stop-color="#f4f2fc" class="bg-primary opacity-0" offset="0"/>
      <stop stop-color="#f2f2fc" offset="0.6666666666666666"/>
    </linearGradient>
    <clipPath id="SvgjsClipPath4855">
      <rect width="1920" height="1080"/>
    </clipPath>
  </defs>
</svg>